<svg width="400" height="400" viewBox="0 0 400 400" fill="none" xmlns="http://www.w3.org/2000/svg">
<g clip-path="url(#clip0)">
<rect width="400" height="400" rx="200" fill="#F6A323"/>
<g style="mix-blend-mode:soft-light">
<circle cx="264.887" cy="237.125" r="164" transform="rotate(30 264.887 237.125)" fill="url(#paint0_linear)"/>
</g>
<g style="mix-blend-mode:soft-light">
<circle cx="134.887" cy="237.028" r="164" transform="rotate(120 134.887 237.028)" fill="url(#paint1_linear)"/>
</g>
<g style="mix-blend-mode:soft-light">
<circle cx="199.859" cy="107" r="164" transform="rotate(-90 199.859 107)" fill="url(#paint2_linear)"/>
</g>
<rect width="18.5996" height="125.551" transform="matrix(-0.864477 -0.502672 0.497333 -0.86756 326.761 457.859)" fill="white"/>
<rect width="18.5996" height="125.551" transform="matrix(-0.864477 -0.502672 0.497333 -0.86756 287.556 507.55)" fill="white"/>
<rect width="18.5996" height="125.551" transform="matrix(-0.864477 -0.502672 0.497333 -0.86756 366.075 407.976)" fill="white"/>
<rect width="18.6002" height="125.555" transform="matrix(-0.86445 -0.502656 0.497317 -0.867533 208.667 480.634)" fill="white"/>
<rect width="18.6002" height="125.555" transform="matrix(-0.86445 -0.502656 0.497317 -0.867533 247.983 430.751)" fill="white"/>
<rect width="18.5996" height="125.551" transform="matrix(-0.864477 -0.502672 0.497333 -0.86756 248.241 330.065)" fill="white"/>
<rect width="18.5996" height="125.551" transform="matrix(-0.864477 -0.502672 0.497333 -0.86756 209.036 379.756)" fill="white"/>
<rect width="18.5996" height="125.551" transform="matrix(-0.864477 -0.502672 0.497333 -0.86756 287.556 280.182)" fill="white"/>
<rect width="18.5996" height="125.551" transform="matrix(-0.864477 -0.502672 0.497333 -0.86756 373.244 289.576)" fill="white"/>
<rect width="18.5996" height="125.551" transform="matrix(-0.864477 -0.502672 0.497333 -0.86756 334.04 339.267)" fill="white"/>
<rect width="18.5996" height="125.551" transform="matrix(-0.864477 -0.502672 0.497333 -0.86756 412.559 239.693)" fill="white"/>
<rect width="18.5996" height="125.551" transform="matrix(-0.864477 -0.502672 0.497333 -0.86756 44.3765 273.467)" fill="white"/>
<rect width="18.5996" height="125.551" transform="matrix(-0.864477 -0.502672 0.497333 -0.86756 5.17194 323.157)" fill="white"/>
<rect width="18.5996" height="125.551" transform="matrix(-0.864477 -0.502672 0.497333 -0.86756 83.6917 223.584)" fill="white"/>
<rect width="18.6002" height="125.555" transform="matrix(-0.86445 -0.502656 0.497317 -0.867533 -34.4014 246.359)" fill="white"/>
<rect width="18.5996" height="125.551" transform="matrix(-0.864477 -0.502672 0.497333 -0.86756 -34.1426 145.673)" fill="white"/>
<rect width="18.5996" height="125.551" transform="matrix(-0.864477 -0.502672 0.497333 -0.86756 5.17212 95.7902)" fill="white"/>
<rect width="18.5996" height="125.551" transform="matrix(-0.864477 -0.502672 0.497333 -0.86756 90.8605 105.184)" fill="white"/>
<rect width="18.5996" height="125.551" transform="matrix(-0.864477 -0.502672 0.497333 -0.86756 51.6564 154.874)" fill="white"/>
<rect width="18.5996" height="125.551" transform="matrix(-0.864477 -0.502672 0.497333 -0.86756 130.176 55.3009)" fill="white"/>
<rect width="18.5996" height="125.551" transform="matrix(-0.864477 -0.502672 0.497333 -0.86756 101.69 512.986)" fill="white"/>
<rect width="18.5996" height="125.551" transform="matrix(-0.864477 -0.502672 0.497333 -0.86756 -16.1447 435.075)" fill="white"/>
<rect width="18.5996" height="125.551" transform="matrix(-0.864477 -0.502672 0.497333 -0.86756 -55.3495 484.766)" fill="white"/>
<rect width="18.5996" height="125.551" transform="matrix(-0.864477 -0.502672 0.497333 -0.86756 23.17 385.192)" fill="white"/>
<rect width="18.5996" height="125.551" transform="matrix(-0.864477 -0.502672 0.497333 -0.86756 108.858 394.586)" fill="white"/>
<rect width="18.5996" height="125.551" transform="matrix(-0.864477 -0.502672 0.497333 -0.86756 69.6536 444.276)" fill="white"/>
<rect width="18.5996" height="125.551" transform="matrix(-0.864477 -0.502672 0.497333 -0.86756 148.173 344.703)" fill="white"/>
<rect width="18.5996" height="125.551" transform="matrix(-0.864477 -0.502672 0.497333 -0.86756 298.212 177.833)" fill="white"/>
<rect width="18.5996" height="125.551" transform="matrix(-0.864477 -0.502672 0.497333 -0.86756 259.008 227.523)" fill="white"/>
<rect width="18.5996" height="125.551" transform="matrix(-0.864477 -0.502672 0.497333 -0.86756 337.527 127.95)" fill="white"/>
<rect width="18.6002" height="125.555" transform="matrix(-0.86445 -0.502656 0.497317 -0.867533 180.119 200.608)" fill="white"/>
<rect width="18.6002" height="125.555" transform="matrix(-0.86445 -0.502656 0.497317 -0.867533 140.915 250.298)" fill="white"/>
<rect width="18.6002" height="125.555" transform="matrix(-0.86445 -0.502656 0.497317 -0.867533 219.434 150.725)" fill="white"/>
<rect width="18.5996" height="125.551" transform="matrix(-0.864477 -0.502672 0.497333 -0.86756 219.692 50.0394)" fill="white"/>
<rect width="18.5996" height="125.551" transform="matrix(-0.864477 -0.502672 0.497333 -0.86756 180.488 99.7297)" fill="white"/>
<rect width="18.5996" height="125.551" transform="matrix(-0.864477 -0.502672 0.497333 -0.86756 259.008 0.156418)" fill="white"/>
<rect width="18.5996" height="125.551" transform="matrix(-0.864477 -0.502672 0.497333 -0.86756 344.695 9.55046)" fill="white"/>
<rect width="18.5996" height="125.551" transform="matrix(-0.864477 -0.502672 0.497333 -0.86756 305.491 59.2407)" fill="white"/>
</g>
<defs>
<linearGradient id="paint0_linear" x1="100.887" y1="237.125" x2="428.887" y2="237.125" gradientUnits="userSpaceOnUse">
<stop stop-color="#24DEF7"/>
<stop offset="1" stop-color="#0038FF" stop-opacity="0"/>
</linearGradient>
<linearGradient id="paint1_linear" x1="-29.1131" y1="237.028" x2="298.887" y2="237.028" gradientUnits="userSpaceOnUse">
<stop stop-color="#F23D94"/>
<stop offset="1" stop-color="#ED6B42" stop-opacity="0"/>
</linearGradient>
<linearGradient id="paint2_linear" x1="35.8588" y1="107" x2="363.859" y2="107" gradientUnits="userSpaceOnUse">
<stop stop-color="#83F08E"/>
<stop offset="1" stop-color="#20F2D9" stop-opacity="0"/>
</linearGradient>
<clipPath id="clip0">
<rect width="400" height="400" rx="200" fill="white"/>
</clipPath>
</defs>
</svg>
